<?xml version="1.0" encoding="UTF-8" standalone="no"?>
<!-- Created with Inkscape (http://www.inkscape.org/) -->

<svg
   xmlns:dc="http://purl.org/dc/elements/1.1/"
   xmlns:cc="http://creativecommons.org/ns#"
   xmlns:rdf="http://www.w3.org/1999/02/22-rdf-syntax-ns#"
   xmlns:svg="http://www.w3.org/2000/svg"
   xmlns="http://www.w3.org/2000/svg"
   xmlns:sodipodi="http://sodipodi.sourceforge.net/DTD/sodipodi-0.dtd"
   xmlns:inkscape="http://www.inkscape.org/namespaces/inkscape"
   width="500"
   height="500"
   viewBox="0 0 132.29167 132.29167"
   version="1.1"
   id="svg8"
   inkscape:version="0.92.4 (5da689c313, 2019-01-14)"
   sodipodi:docname="blockly.svg">
  <defs
     id="defs2" />
  <sodipodi:namedview
     id="base"
     pagecolor="#ffffff"
     bordercolor="#666666"
     borderopacity="1.0"
     inkscape:pageopacity="0.0"
     inkscape:pageshadow="2"
     inkscape:zoom="256"
     inkscape:cx="373.06353"
     inkscape:cy="346.60619"
     inkscape:document-units="mm"
     inkscape:current-layer="layer1"
     showgrid="false"
     units="px"
     width="512px"
     inkscape:window-width="1920"
     inkscape:window-height="1138"
     inkscape:window-x="1192"
     inkscape:window-y="503"
     inkscape:window-maximized="1" />
  <metadata
     id="metadata5">
    <rdf:RDF>
      <cc:Work
         rdf:about="">
        <dc:format>image/svg+xml</dc:format>
        <dc:type
           rdf:resource="http://purl.org/dc/dcmitype/StillImage" />
        <dc:title />
      </cc:Work>
    </rdf:RDF>
  </metadata>
  <g
     inkscape:label="Ebene 1"
     inkscape:groupmode="layer"
     id="layer1"
     transform="translate(0,-164.70833)">
    <path
       id="path3735"
       d="m 119.30183,238.29454 c -9.53581,0 -13.66555,7.25606 -18.84652,7.25606 -13.774638,0 -1.236557,-40.47849 -1.236557,-40.47849 0,0 -45.082061,18.37384 -45.082061,-0.75723 0,-8.2285 8.334375,-10.62238 8.334375,-19.74844 0,-8.15386 -6.457258,-12.56725 -14.115935,-12.56725 -7.95909,0 -15.242481,4.33875 -15.242481,12.94116 0,9.5002 7.283162,13.61433 7.283162,18.77577 C 40.396042,219.70665 0,210.29901 0,210.29901 v 76.53554 c 0,0 41.027644,9.4274 41.027644,-6.58288 0,-5.16145 -9.186922,-9.2115 -9.186922,-18.71169 0,-8.60264 6.717937,-12.94115 14.601923,-12.94115 7.73378,0 14.191037,4.41339 14.191037,12.56701 0,9.12606 -8.334375,11.51994 -8.334375,19.74843 0,13.96482 29.782852,5.90949 41.623647,5.90949 0,0 -7.975398,-27.58396 5.931762,-27.58396 8.259504,0 10.662114,8.30313 19.822624,8.30313 8.1844,2.4e-4 12.61433,-6.4329 12.61433,-14.13775 0,-7.85458 -4.35506,-15.11064 -12.98984,-15.11064 z"
       inkscape:connector-curvature="0"
       style="fill:#14487e;stroke-width:0.22967303;fill-opacity:1" />
    <path
       style="fill:#14487e;fill-opacity:1;stroke-width:0.71428573"
       d="M 71.545344,471.17288 C 59.323789,470.53882 45.244987,469.05231 31.148108,466.90756 21.724765,465.47385 3.6094573,462.20178 1.3266793,461.52108 0.14155863,461.16769 0.07667928,453.65941 0.07667928,316.86262 c 0,-137.07971 0.06242857,-144.26723 1.25000002,-143.91576 7.2763793,2.15353 39.0587137,7.01575 56.9642857,8.71468 15.20535,1.44273 46.088345,1.09465 55.012645,-0.62004 20.46962,-3.93299 31.624,-10.30146 36.93442,-21.0873 2.15382,-4.37458 2.33686,-5.28749 2.31595,-11.55121 -0.029,-8.70301 -1.07663,-11.35494 -10.02296,-25.37267 -12.94545,-20.28379 -16.74005,-30.710731 -16.74005,-45.998802 0,-6.200115 0.3751,-9.674839 1.47442,-13.65841 5.43223,-19.684342 22.70914,-32.277497 48.0213,-35.002769 20.98374,-2.259245 41.11417,5.05325 51.32657,18.644671 6.77276,9.013703 8.79465,15.514578 8.75768,28.158168 -0.0237,8.106518 -0.26956,10.017373 -1.93601,15.047239 -2.22369,6.711808 -6.56593,14.155273 -14.2674,24.457213 -6.89223,9.21943 -10.67654,15.61219 -12.76699,21.56698 -2.32938,6.6354 -2.35359,19.94353 -0.0469,25.74846 2.24573,5.65139 5.3045,9.47279 10.19789,12.74046 9.51699,6.3552 19.21409,8.27876 38.88222,7.71286 17.50987,-0.50381 31.55399,-2.70743 55.19007,-8.6597 17.37727,-4.37613 44.80327,-13.11678 59.36708,-18.92026 2.11358,-0.84223 3.92913,-1.43919 4.03456,-1.32657 0.10543,0.11261 -1.37686,5.93705 -3.29397,12.9432 -6.10656,22.31658 -11.04052,46.19147 -13.97404,67.61869 -1.77039,12.93149 -1.79341,39.60802 -0.0412,47.73171 2.4913,11.55024 6.90881,18.61126 13.73207,21.94956 3.58888,1.75588 4.46508,1.89196 10.1706,1.57957 7.69219,-0.42118 9.77818,-1.30423 23.57616,-9.98034 17.47429,-10.98778 25.69859,-14.52132 37.97682,-16.31664 7.00438,-1.02417 16.50133,-0.52329 22.18923,1.1703 12.37167,3.68371 22.34269,12.16555 28.137,23.93472 5.32594,10.81784 6.40315,15.9285 6.45932,30.64541 0.042,11.01108 -0.14797,13.17583 -1.59514,18.17386 -6.10169,21.07314 -21.21052,33.80637 -41.71142,35.15303 -14.11046,0.92688 -24.37551,-2.93712 -42.71711,-16.07975 -17.43402,-12.49229 -25.34022,-15.62048 -37.64968,-14.89656 -17.24359,1.01411 -26.52922,13.19599 -28.78996,37.76978 -1.32024,14.35064 1.11561,37.67859 6.09064,58.32967 0.97767,4.05824 1.77757,7.46784 1.77757,7.57691 0,0.10907 -3.61607,0.42511 -8.03571,0.70232 -4.41964,0.27721 -13.5,1.13385 -20.17857,1.90364 -52.23506,6.02077 -60.97026,6.70305 -78.78084,6.15335 -22.4308,-0.6923 -35.14899,-4.54093 -42.84966,-12.96669 -4.8988,-5.36007 -6.24435,-9.421 -6.16468,-18.60528 0.10029,-11.56215 2.86045,-17.76706 15.56923,-35 12.21976,-16.56984 15.92041,-26.43916 15.26107,-40.69998 -0.99586,-21.5396 -12.89614,-36.36437 -34.4829,-42.95708 -5.90984,-1.8049 -7.38357,-1.96062 -18.90936,-1.99808 -13.43115,-0.0436 -17.81919,0.67516 -26.78572,4.38786 -18.20947,7.53987 -28.92857,23.92403 -28.92857,44.21737 0,14.57961 5.19049,26.65417 18.48819,43.00881 13.70037,16.84988 15.94358,20.84065 15.88662,28.26295 -0.0452,5.87883 -0.4956,7.70038 -3.16378,12.7931 -6.52772,12.45939 -23.50677,19.32625 -52.416452,21.19887 -11.5983,0.75127 -11.464779,0.75162 -27.325914,-0.0713 z"
       id="path4586"
       inkscape:connector-curvature="0"
       transform="matrix(0.26458333,0,0,0.26458333,0,164.70833)" />
  </g>
</svg>
