<?xml version="1.0" encoding="UTF-8" standalone="no"?>
<!-- Created with Inkscape (http://www.inkscape.org/) -->

<svg
   xmlns:dc="http://purl.org/dc/elements/1.1/"
   xmlns:cc="http://creativecommons.org/ns#"
   xmlns:rdf="http://www.w3.org/1999/02/22-rdf-syntax-ns#"
   xmlns:svg="http://www.w3.org/2000/svg"
   xmlns="http://www.w3.org/2000/svg"
   xmlns:sodipodi="http://sodipodi.sourceforge.net/DTD/sodipodi-0.dtd"
   xmlns:inkscape="http://www.inkscape.org/namespaces/inkscape"
   width="500"
   height="500"
   viewBox="0 0 132.29167 132.29167"
   version="1.1"
   id="svg8"
   inkscape:version="0.92.4 (5da689c313, 2019-01-14)"
   sodipodi:docname="editor.svg">
  <defs
     id="defs2" />
  <sodipodi:namedview
     id="base"
     pagecolor="#ffffff"
     bordercolor="#666666"
     borderopacity="1.0"
     inkscape:pageopacity="0.0"
     inkscape:pageshadow="2"
     inkscape:zoom="1.4"
     inkscape:cx="371.90631"
     inkscape:cy="171.54401"
     inkscape:document-units="mm"
     inkscape:current-layer="layer1"
     showgrid="false"
     units="px"
     width="512px"
     inkscape:window-width="1920"
     inkscape:window-height="1138"
     inkscape:window-x="1192"
     inkscape:window-y="503"
     inkscape:window-maximized="1" />
  <metadata
     id="metadata5">
    <rdf:RDF>
      <cc:Work
         rdf:about="">
        <dc:format>image/svg+xml</dc:format>
        <dc:type
           rdf:resource="http://purl.org/dc/dcmitype/StillImage" />
        <dc:title />
      </cc:Work>
    </rdf:RDF>
  </metadata>
  <g
     inkscape:label="Ebene 1"
     inkscape:groupmode="layer"
     id="layer1"
     transform="translate(0,-164.70833)">
    <path
       id="path3713"
       d="M 57.650895,278.91431 45.042832,275.5771 c -1.322814,-0.33937 -2.066896,-1.60261 -1.694856,-2.80926 l 28.21313,-88.65252 c 0.372041,-1.20667 1.756862,-1.88542 3.079674,-1.54604 l 12.608062,3.33718 c 1.32282,0.33937 2.066902,1.60262 1.694861,2.80929 l -28.213126,88.6525 c -0.392713,1.2067 -1.756863,1.90428 -3.079682,1.54606 z m -23.562612,-21.15442 8.990998,-8.74837 c 0.950771,-0.92386 0.888766,-2.39449 -0.165354,-3.24292 L 24.18785,230.74179 42.913927,215.71498 c 1.05412,-0.84843 1.136794,-2.31908 0.165354,-3.24293 l -8.990998,-8.74835 c -0.930103,-0.905 -2.500946,-0.96157 -3.513725,-0.0942 L 0.79058768,229.08262 c -1.05411691,0.88615 -1.05411691,2.41333 0,3.29949 L 30.574558,257.85415 c 1.012779,0.86729 2.583622,0.82956 3.513725,-0.0942 z m 67.628837,0.1131 29.78395,-25.47204 c 1.05412,-0.88614 1.05412,-2.41331 0,-3.29948 l -29.78395,-25.49089 c -0.99212,-0.84845 -2.562957,-0.81074 -3.513727,0.0942 l -8.990993,8.74836 c -0.950776,0.92385 -0.888767,2.39447 0.165347,3.24292 l 18.726063,15.04567 -18.726063,15.02681 c -1.054114,0.84843 -1.136793,2.31906 -0.165347,3.24291 l 8.990993,8.74836 c 0.93011,0.92384 2.500947,0.96157 3.513727,0.11312 z"
       inkscape:connector-curvature="0"
       style="fill:#14487e;stroke-width:0.19740744;fill-opacity:1" />
    <path
       style="fill:#14487e;fill-opacity:1;stroke-width:0.82168734"
       d="M 16.022903,244.90309 C 7.8881983,237.89553 1.1545009,231.53574 1.0591307,230.77023 0.94740688,229.87346 6.0294233,224.99445 15.34701,217.0531 c 7.953704,-6.77892 15.167169,-12.66698 16.029926,-13.08457 1.295435,-0.62701 2.492079,0.15598 6.87057,4.49554 2.916057,2.89014 5.301922,5.48013 5.301922,5.75553 0,0.2754 -4.419162,3.98367 -9.820361,8.24061 -5.401198,4.25694 -9.745869,7.98017 -9.654823,8.27386 0.09104,0.29369 4.048004,3.65355 8.793248,7.46635 12.236059,9.83167 11.807577,8.724 5.63094,14.55644 -2.871054,2.71105 -5.774735,4.91976 -6.452626,4.90823 -0.677892,-0.0115 -7.888199,-5.75443 -16.022903,-12.762 z"
       id="path4600"
       inkscape:connector-curvature="0" />
    <path
       style="fill:#14487e;fill-opacity:1;stroke-width:0.82168734"
       d="m 50.18944,276.60689 c -2.900949,-0.86569 -5.595034,-1.89456 -5.98685,-2.28638 -0.650044,-0.65004 27.206637,-89.92039 28.446391,-91.16014 0.595025,-0.59503 14.497556,2.85852 15.534351,3.85891 0.370498,0.35748 -5.784772,20.94243 -13.678376,45.74433 l -14.352009,45.09435 -2.344525,0.16146 c -1.28949,0.0888 -4.718033,-0.54683 -7.618982,-1.41253 z"
       id="path4602"
       inkscape:connector-curvature="0" />
    <path
       style="fill:#14487e;fill-opacity:1;stroke-width:0.82168734"
       d="m 93.793229,252.75686 c -4.283489,-4.04479 -5.043237,-5.1423 -4.234394,-6.11689 0.542131,-0.65323 5.017291,-4.43241 9.944798,-8.39818 4.927497,-3.96577 8.942437,-7.39751 8.922077,-7.62609 -0.0204,-0.22858 -4.45747,-3.89855 -9.860247,-8.15549 -5.402776,-4.25694 -9.82323,-7.96521 -9.82323,-8.24061 0,-0.2754 2.385866,-2.86539 5.301922,-5.75553 4.378488,-4.33956 5.575138,-5.12255 6.870565,-4.49554 3.11391,1.50719 30.4515,25.44126 30.50274,26.70516 0.0586,1.4461 -29.62844,27.06458 -31.32583,27.03264 -0.593067,-0.0112 -3.427347,-2.23842 -6.298401,-4.94947 z"
       id="path4604"
       inkscape:connector-curvature="0" />
  </g>
</svg>
