<?xml version="1.0" encoding="UTF-8" standalone="no"?>
<!DOCTYPE svg PUBLIC "-//W3C//DTD SVG 1.1//EN" "http://www.w3.org/Graphics/SVG/1.1/DTD/svg11.dtd">
<svg width="100%" height="100%" viewBox="0 0 667 667" version="1.1" xmlns="http://www.w3.org/2000/svg" xmlns:xlink="http://www.w3.org/1999/xlink" xml:space="preserve" xmlns:serif="http://www.serif.com/" style="fill-rule:evenodd;clip-rule:evenodd;stroke-linejoin:round;stroke-miterlimit:2;">
    <g transform="matrix(1.33333,0,0,1.33333,0,0)">
        <g transform="matrix(25.6732,0,0,25.6732,-4086.87,-108.302)">
            <clipPath id="_clip1">
                <path d="M158,4L179,4L179,23L158,23.001L158,4Z"/>
            </clipPath>
            <g clip-path="url(#_clip1)">
                <clipPath id="_clip2">
                    <path d="M159.809,4.02L176.887,4.02C177.637,4.02 178.238,4.621 178.238,5.371L178.238,21.352C178.238,22.102 177.637,22.703 176.887,22.703L159.809,22.703C159.062,22.703 158.461,22.102 158.461,21.352L158.461,5.371C158.461,4.621 159.062,4.02 159.809,4.02Z"/>
                </clipPath>
                <g clip-path="url(#_clip2)">
                    <clipPath id="_clip3">
                        <path d="M158,4L179,4L179,23L158,23.001L158,4Z"/>
                    </clipPath>
                    <g clip-path="url(#_clip3)">
                        <path d="M173.289,36.652L175.449,33.488L175.449,36.691L175.988,36.691L175.988,16.734L175.449,16.734L173.496,14.691L163.461,14.691L162.285,15.797L162.285,16.734L161.746,16.734L161.746,36.652L173.289,36.652Z" style="fill:rgb(20,72,126);fill-rule:nonzero;"/>
                        <g transform="matrix(1,0,0,1,-0.00129303,0)">
                            <path d="M168.074,5.469L167.578,5.977L165.57,5.977L165,5.387L162.316,5.387C161.82,5.395 161.43,5.801 161.438,6.293L161.438,12.668C161.434,13.109 161.754,13.488 162.188,13.559C162.188,13.559 165.879,14.234 165.938,14.258C166.242,14.359 166.449,14.648 166.449,14.969L166.449,16.02C166.449,16.434 166.785,16.77 167.199,16.77L170.656,16.77C171.07,16.77 171.406,16.434 171.406,16.02L171.406,15C171.402,14.676 171.609,14.391 171.914,14.289C171.984,14.289 175.664,13.59 175.664,13.59C176.102,13.516 176.418,13.137 176.414,12.699L176.414,6.293C176.422,5.801 176.031,5.395 175.539,5.387L172.852,5.387L172.273,5.977L170.266,5.977L169.77,5.469L168.074,5.469Z" style="fill:rgb(0,106,179);fill-rule:nonzero;"/>
                        </g>
                        <path d="M167.773,7.516L169.957,7.516L169.957,12.532L167.773,12.533L167.773,7.516Z" style="fill:white;fill-rule:nonzero;"/>
                        <path d="M164.477,7.035C164.477,7.633 164.004,8.113 163.426,8.113C162.844,8.113 162.375,7.633 162.375,7.035C162.375,6.438 162.844,5.953 163.426,5.953C164.004,5.953 164.477,6.438 164.477,7.035Z" style="fill:rgb(249,157,51);fill-rule:nonzero;"/>
                        <path d="M164.477,11.484C164.477,12.078 164.004,12.562 163.426,12.562C162.844,12.562 162.375,12.078 162.375,11.484C162.375,10.887 162.844,10.402 163.426,10.402C164.004,10.402 164.477,10.887 164.477,11.484Z" style="fill:rgb(20,72,126);fill-rule:nonzero;"/>
                        <path d="M175.418,7.035C175.418,7.633 174.949,8.113 174.367,8.113C173.789,8.113 173.316,7.633 173.316,7.035C173.316,6.438 173.789,5.953 174.367,5.953C174.949,5.953 175.418,6.438 175.418,7.035Z" style="fill:rgb(249,157,51);fill-rule:nonzero;"/>
                        <path d="M175.418,11.484C175.418,12.078 174.949,12.562 174.367,12.562C173.789,12.562 173.316,12.078 173.316,11.484C173.316,10.887 173.789,10.402 174.367,10.402C174.949,10.402 175.418,10.887 175.418,11.484Z" style="fill:rgb(20,72,126);fill-rule:nonzero;"/>
                        <path d="M175.996,16.828L177.09,16.828L177.09,20.168L175.996,20.168" style="fill:rgb(0,106,179);fill-rule:nonzero;"/>
                        <path d="M175.988,21.465L176.633,21.465L176.633,26.781L175.988,26.781" style="fill:rgb(0,106,179);fill-rule:nonzero;"/>
                        <path d="M161.723,17.363L159.562,17.363L159.562,18.195L161.723,18.195" style="fill:rgb(0,106,179);fill-rule:nonzero;"/>
                        <path d="M161.723,18.621L159.562,18.621L159.562,19.461L161.723,19.461" style="fill:rgb(0,106,179);fill-rule:nonzero;"/>
                        <path d="M161.723,19.891L159.562,19.891L159.562,20.723L161.723,20.723" style="fill:rgb(0,106,179);fill-rule:nonzero;"/>
                    </g>
                </g>
            </g>
        </g>
    </g>
</svg>
