<?xml version="1.0" encoding="UTF-8" standalone="no"?>
<!-- Created with Inkscape (http://www.inkscape.org/) -->

<svg
   xmlns:dc="http://purl.org/dc/elements/1.1/"
   xmlns:cc="http://creativecommons.org/ns#"
   xmlns:rdf="http://www.w3.org/1999/02/22-rdf-syntax-ns#"
   xmlns:svg="http://www.w3.org/2000/svg"
   xmlns="http://www.w3.org/2000/svg"
   xmlns:sodipodi="http://sodipodi.sourceforge.net/DTD/sodipodi-0.dtd"
   xmlns:inkscape="http://www.inkscape.org/namespaces/inkscape"
   width="48"
   height="48"
   viewBox="0 0 12.7 12.7"
   version="1.1"
   id="svg3749"
   inkscape:version="0.92.4 (5da689c313, 2019-01-14)"
   sodipodi:docname="icon18.svg">
  <defs
     id="defs3743" />
  <sodipodi:namedview
     id="base"
     pagecolor="#ffffff"
     bordercolor="#666666"
     borderopacity="1.0"
     inkscape:pageopacity="0.0"
     inkscape:pageshadow="2"
     inkscape:zoom="9.28"
     inkscape:cx="57.201747"
     inkscape:cy="32.536186"
     inkscape:document-units="px"
     inkscape:current-layer="layer1"
     showgrid="false"
     units="px"
     inkscape:window-width="1920"
     inkscape:window-height="1138"
     inkscape:window-x="1192"
     inkscape:window-y="503"
     inkscape:window-maximized="1" />
  <metadata
     id="metadata3746">
    <rdf:RDF>
      <cc:Work
         rdf:about="">
        <dc:format>image/svg+xml</dc:format>
        <dc:type
           rdf:resource="http://purl.org/dc/dcmitype/StillImage" />
        <dc:title></dc:title>
      </cc:Work>
    </rdf:RDF>
  </metadata>
  <g
     inkscape:label="Ebene 1"
     inkscape:groupmode="layer"
     id="layer1"
     transform="translate(0,-284.3)">
    <g
       id="g3781"
       class="layer"
       transform="matrix(0.67780111,0,0,0.69573411,-209.44536,141.94858)">
      <title
         id="title3771">Layer 1</title>
      <path
         id="svg_7"
         d="m 309.00711,222.85722 v -18.25115 h 18.73706 v 18.25115 z"
         inkscape:connector-curvature="0"
         style="fill:#006ab3;fill-rule:nonzero" />
      <path
         id="svg_8"
         d="m 324.84646,207.93656 c 0,-0.51279 -0.41639,-0.92918 -0.92983,-0.92918 h -11.15214 c -0.51344,0 -0.92984,0.41639 -0.92984,0.92918 v 11.59082 c 0,0.51279 0.4164,0.92918 0.92984,0.92918 h 11.15214 c 0.51344,0 0.92983,-0.41639 0.92983,-0.92918 z"
         inkscape:connector-curvature="0"
         style="fill:#ffffff" />
      <path
         id="svg_14"
         d="m 310.53498,222.85952 c 0,0 0.64197,-3.60427 2.85771,-5.95378 l -0.83869,-2.81901 c 0,0 -0.77246,-1.94689 0.56984,-1.91345 l 1.67803,0.10099 c 0,0 -2.28196,-3.15476 2.24918,-2.85312 0,0 1.63542,-2.56787 2.6846,-1.30885 0.23803,0.3377 0.62623,0.53902 1.03934,0.53902 0.26557,0 0.52394,-0.0826 0.74033,-0.23738 0.21574,-0.1541 1.67803,-0.16787 1.20787,1.40984 l -0.20131,1.57836 c 0,0 4.36393,1.94688 0.5036,3.18819 l 1.20853,0.63738 c 0,0 -2.01377,2.01377 -1.44328,3.82689 0.60197,1.84066 0.79639,1.86852 0.77213,3.80557 z"
         inkscape:connector-curvature="0"
         style="fill:#14487e;fill-rule:nonzero" />
      <path
         id="svg_15"
         d="m 320.37368,219.18837 c 0.038,0.13311 0.0682,-1.30885 0.33639,-1.67869 0,0 -3.83738,-0.52459 -6.10951,-2.48328 -1.8282,-1.57771 -2.1141,-2.11541 -1.51016,-2.58492 0,0 -1.10623,0.26623 -0.0997,1.64262 1.00656,1.3764 3.67148,3.29312 6.89443,3.83017 0.19804,0.40984 0.36197,0.83607 0.48853,1.2741 z"
         inkscape:connector-curvature="0"
         style="fill:#ffffff;fill-rule:nonzero" />
      <path
         id="svg_16"
         d="m 316.8163,209.85722 -0.33574,0.73836 c 0,0 1.3259,1.72852 5.95738,1.79606 l -0.11738,-0.78885 c 0,0 -3.72524,6.6e-4 -5.50426,-1.74557 z"
         inkscape:connector-curvature="0"
         style="fill:#f99d33;fill-rule:nonzero" />
      <path
         id="svg_17"
         d="m 319.2681,215.20345 2.01181,0.0761 c 0,0 -0.34164,0.49312 -1.67017,0.37968 0,0 -0.45508,-0.0761 -0.34164,-0.45574 z"
         inkscape:connector-curvature="0"
         style="fill:#ffffff;fill-rule:nonzero" />
      <path
         id="svg_18"
         d="m 318.22548,215.07033 -1.82164,-0.53049 c 0,0 -0.28393,0.28459 0.34164,0.5882 0.48328,0.16262 1.01049,0.14229 1.48,-0.0577 z"
         inkscape:connector-curvature="0"
         style="fill:#ffffff;fill-rule:nonzero" />
      <g
         id="svg_3" />
    </g>
  </g>
</svg>
