<?xml version="1.0" encoding="UTF-8" standalone="no"?>
<!-- Created with Inkscape (http://www.inkscape.org/) -->

<svg
   xmlns:dc="http://purl.org/dc/elements/1.1/"
   xmlns:cc="http://creativecommons.org/ns#"
   xmlns:rdf="http://www.w3.org/1999/02/22-rdf-syntax-ns#"
   xmlns:svg="http://www.w3.org/2000/svg"
   xmlns="http://www.w3.org/2000/svg"
   xmlns:sodipodi="http://sodipodi.sourceforge.net/DTD/sodipodi-0.dtd"
   xmlns:inkscape="http://www.inkscape.org/namespaces/inkscape"
   width="500"
   height="500"
   viewBox="0 0 132.29167 132.29167"
   version="1.1"
   id="svg8"
   inkscape:version="0.92.4 (5da689c313, 2019-01-14)"
   sodipodi:docname="settings.svg">
  <defs
     id="defs2" />
  <sodipodi:namedview
     id="base"
     pagecolor="#ffffff"
     bordercolor="#666666"
     borderopacity="1.0"
     inkscape:pageopacity="0.0"
     inkscape:pageshadow="2"
     inkscape:zoom="3.959798"
     inkscape:cx="353.2741"
     inkscape:cy="274.86906"
     inkscape:document-units="mm"
     inkscape:current-layer="layer1"
     showgrid="false"
     units="px"
     width="512px"
     inkscape:window-width="1340"
     inkscape:window-height="911"
     inkscape:window-x="1192"
     inkscape:window-y="503"
     inkscape:window-maximized="1" />
  <metadata
     id="metadata5">
    <rdf:RDF>
      <cc:Work
         rdf:about="">
        <dc:format>image/svg+xml</dc:format>
        <dc:type
           rdf:resource="http://purl.org/dc/dcmitype/StillImage" />
        <dc:title />
      </cc:Work>
    </rdf:RDF>
  </metadata>
  <g
     inkscape:label="Ebene 1"
     inkscape:groupmode="layer"
     id="layer1"
     transform="translate(0,-164.70833)">
    <path
       id="path3746"
       d="M 129.47557,266.94016 99.221976,236.68658 c -5.968054,-5.96806 -14.881358,-7.13065 -22.063684,-3.59116 L 49.617445,205.55456 V 189.5106 L 16.547759,164.70833 0.01291711,181.24317 24.815181,214.31286 h 16.043963 l 27.540855,27.54085 c -3.513663,7.18232 -2.376891,16.09564 3.591152,22.06368 l 30.253599,30.2536 c 3.77201,3.772 9.86924,3.772 13.61542,0 l 13.6154,-13.61541 c 3.74618,-3.77201 3.74618,-9.86924 0,-13.61542 z M 85.709911,222.83864 c 7.3115,0 14.183793,2.84193 19.350939,8.00906 l 5.01211,5.01213 c 4.08205,-1.78266 7.95741,-4.26289 11.31604,-7.62153 9.58504,-9.58504 12.84033,-23.07127 9.79172,-35.31739 -0.56839,-2.32521 -3.48781,-3.12612 -5.19297,-1.42096 L 106.766,210.7217 89.223563,207.80226 86.304129,190.25983 105.52588,171.03807 c 1.70516,-1.70515 0.87842,-4.62459 -1.47263,-5.2188 -12.246111,-3.02279 -25.732349,0.23251 -35.291556,9.79172 -7.363173,7.36318 -10.825151,17.07739 -10.644304,26.76579 l 21.211097,21.21109 c 2.092696,-0.49088 4.262903,-0.74923 6.381424,-0.74923 z M 58.866619,244.0239 44.217793,229.37508 4.844192,268.7745 c -6.4589226,6.45892 -6.4589226,16.92237 0,23.3813 6.458923,6.45893 16.922378,6.45893 23.381301,0 l 31.932919,-31.93291 c -1.963522,-5.1413 -2.557739,-10.74765 -1.291793,-16.19899 z m -42.31886,42.62889 c -3.410312,0 -6.200566,-2.79025 -6.200566,-6.20056 0,-3.43614 2.76442,-6.20057 6.200566,-6.20057 3.436148,0 6.200566,2.76443 6.200566,6.20057 0,3.41031 -2.764418,6.20056 -6.200566,6.20056 z"
       inkscape:connector-curvature="0"
       style="fill:#14487e;stroke-width:0.2583569;fill-opacity:1" />
    <path
       style="fill:#14487e;fill-opacity:1;stroke-width:2.85714293"
       d="m 400,496.3174 c -8.20026,-2.903 -134.70031,-130.92854 -140.61715,-142.31289 -6.87788,-13.23345 -8.20777,-44.56791 -2.35562,-55.50274 3.40814,-6.36817 1.03969,-9.23768 -48.83659,-59.16869 L 155.77221,186.85714 H 125.3818 94.991386 L 48.625803,125.06255 2.2602209,63.267957 31.793346,33.63398 C 48.036566,17.335291 62.32236,4 63.539554,4 64.756746,4 92.744006,24.239066 125.73346,48.975703 l 59.98083,44.975703 v 30.053264 30.05326 l 52.67765,52.61992 52.67766,52.61992 11.22526,-3.36317 c 6.17388,-1.84975 16.8618,-3.35061 23.75091,-3.33526 24.5468,0.0547 36.40237,8.89142 106.09709,79.08095 l 65,65.46148 v 15.0586 15.05863 l -30.71429,31.51314 c -16.89286,17.33223 -34.18614,33.31323 -38.42954,35.51335 -7.71677,4.00102 -19.9326,4.88751 -27.99903,2.03191 z"
       id="path4632"
       inkscape:connector-curvature="0"
       transform="matrix(0.26458333,0,0,0.26458333,0,164.70833)" />
    <path
       style="fill:#14487e;fill-opacity:1;stroke-width:2.85714293"
       d="m 401.32117,252.42295 c -7.8426,-7.98414 -22.41626,-18.50051 -32.6135,-23.53394 -16.27287,-8.0324 -21.41623,-9.13833 -43.85042,-9.42875 l -25.41522,-0.32901 -40.04319,-40.04318 -40.04318,-40.04319 3.47108,-20.57892 C 234.6853,48.160429 298.54937,-3.2273756 367.59645,1.977954 390.35851,3.6939429 400,7.5020791 400,14.776506 c 0,2.673644 -16.90578,21.80182 -37.5684,42.507057 l -37.5684,37.645886 5.09038,32.392421 c 2.79971,17.81583 5.98254,33.3909 7.07297,34.61127 1.09042,1.22037 16.66982,4.73902 34.62088,7.81922 l 32.63828,5.60036 39.01772,-38.94203 c 41.04672,-40.96709 45.24208,-43.222859 51.20726,-27.53324 4.0645,10.69045 3.9056,51.21134 -0.26151,66.68681 -4.86566,18.06967 -17.74532,42.17526 -30.324,56.75444 -9.3896,10.8829 -41.31876,34.53844 -46.6184,34.53844 -0.99402,0 -8.18754,-6.49539 -15.98561,-14.43419 z"
       id="path4634"
       inkscape:connector-curvature="0"
       transform="matrix(0.26458333,0,0,0.26458333,0,164.70833)" />
    <path
       style="fill:#14487e;fill-opacity:1;stroke-width:2.85714293"
       d="M 38.571429,492.9176 C 24.274477,486.35917 11.900169,474.14183 6.3884586,461.14286 0.80026886,447.96351 1.1867363,424.16844 7.1837783,412.17444 9.8246271,406.89279 46.879323,367.54339 89.527546,324.73135 L 167.06977,246.89128 193.53489,273.24635 220,299.60143 v 22.01328 c 0,12.10731 1.3483,25.55959 2.99622,29.89395 2.90421,7.63866 1.03978,9.84691 -60.71428,71.91073 -40.04329,40.24412 -67.956006,66.01948 -75.139083,69.38544 -14.501643,6.79542 -33.905477,6.84047 -48.571428,0.11278 z m 40.675017,-38.20331 c 14.383388,-15.52251 4.356188,-42.14286 -15.874123,-42.14286 -23.726234,0 -33.919689,30.42028 -15.048486,44.90913 7.696657,5.90931 24.256372,4.42791 30.922609,-2.76627 z"
       id="path4636"
       inkscape:connector-curvature="0"
       transform="matrix(0.26458333,0,0,0.26458333,0,164.70833)" />
  </g>
</svg>
