<svg xmlns="http://www.w3.org/2000/svg" xmlns:xlink="http://www.w3.org/1999/xlink" viewBox="0 0 243.82 48.92"><defs><style>.cls-1{fill:none;}.cls-2{fill:#14487e;}.cls-3,.cls-7{fill:#fff;}.cls-4{fill:#f99d33;}.cls-5{clip-path:url(#clip-path);}.cls-6{fill:#006ab3;}.cls-7{stroke:#fff;stroke-miterlimit:10;stroke-width:0.71px;}</style><clipPath id="clip-path" transform="translate(0)"><rect class="cls-1" x="211.28" y="5.36" width="26.37" height="24.91" rx="1.8"/></clipPath></defs><title>HuCon-Robot-Logo</title><g id="HG"><path class="cls-2" d="M110.25,35.77V23s.21-4.33-1.94.19c0,0-2.46,3.57-4.4,0V13.3c1.94-3.57,4.4,0,4.4,0,2.15,4.52,1.94.19,1.94.19V0H240.34c1.92,0,3.48.88,3.48,4.42V35.77Z" transform="translate(0)"/><path class="cls-3" d="M210.23,31.73V23s.21-4.33-1.94.19c0,0-2.46,3.57-4.4,0V13.23c1.94-3.57,4.4,0,4.4,0,2.15,4.52,1.94.19,1.94.19V3.9h28.58V31.73Z" transform="translate(0)"/><rect class="cls-3" x="211.28" y="5.36" width="26.37" height="24.91" rx="1.8"/><path class="cls-4" d="M23.12,35.77l-4.35,5-4.75-5H0V4.42C0,.88,1.56,0,3.48,0H14l4.75,4.6L23.12,0H110.2V13.78s.2,4.33-2-.19c0,0-2.45-3.58-4.4,0v9.64c2,3.57,4.4,0,4.4,0,2.15-4.52,2-.19,2-.19V35.77Z" transform="translate(0)"/><g class="cls-5"><polygon class="cls-2" points="231.05 48.87 233.93 44.65 233.93 48.92 234.65 48.92 234.65 22.31 233.93 22.31 231.33 19.59 217.95 19.59 216.38 21.06 216.38 22.31 215.66 22.31 215.66 48.87 231.05 48.87"/><path class="cls-6" d="M224.1,7.29l-.66.68h-2.68L220,7.18h-3.58a1.19,1.19,0,0,0-1.17,1.21v8.5a1.2,1.2,0,0,0,1,1.19s4.92.9,5,.93a1,1,0,0,1,.68.95v1.4a1,1,0,0,0,1,1h4.61a1,1,0,0,0,1-1V20a1,1,0,0,1,.68-.95c.09,0,5-.93,5-.93a1.2,1.2,0,0,0,1-1.19V8.39a1.19,1.19,0,0,0-1.17-1.21h-3.58l-.77.79h-2.68l-.66-.68Z" transform="translate(0)"/><rect class="cls-3" x="223.69" y="10.02" width="2.91" height="6.69" transform="translate(450.3 26.73) rotate(180)"/><ellipse class="cls-4" cx="217.9" cy="9.38" rx="1.4" ry="1.44"/><ellipse class="cls-2" cx="217.9" cy="15.31" rx="1.4" ry="1.44"/><ellipse class="cls-4" cx="232.49" cy="9.38" rx="1.4" ry="1.44"/><ellipse class="cls-2" cx="232.49" cy="15.31" rx="1.4" ry="1.44"/><polyline class="cls-6" points="234.66 22.44 236.12 22.44 236.12 26.89 234.66 26.89"/><polyline class="cls-6" points="234.65 28.62 235.51 28.62 235.51 35.71 234.65 35.71"/><path class="cls-6" d="M234.65,35.94h.84v.92h.19a.36.36,0,0,1,.36.37V38.5a.37.37,0,0,1-.36.37h-.19v1h-.84" transform="translate(0)"/><polyline class="cls-6" points="215.66 32.18 214.94 32.18 214.94 35.23 215.66 35.23"/><polyline class="cls-6" points="215.63 23.15 212.75 23.15 212.75 24.26 215.63 24.26"/><polyline class="cls-6" points="215.63 24.83 212.75 24.83 212.75 25.95 215.63 25.95"/><polyline class="cls-6" points="215.63 26.52 212.75 26.52 212.75 27.63 215.63 27.63"/></g></g><g id="Text-Pfade"><path class="cls-7" d="M11.67,19.6V12.68a11.11,11.11,0,0,0,1.75,0c.28,0,.52-.35.78-.55-.25-.19-.49-.55-.75-.56a21.66,21.66,0,0,0-3.12,0A7.69,7.69,0,0,0,8.69,12l1.5,1.08V28.56a9.24,9.24,0,0,0-1.5,0c-.25.05-.46.33-.69.51.24.21.46.6.7.61q2.4.07,4.8,0c.23,0,.46-.33.69-.5-.23-.21-.44-.57-.7-.61a11,11,0,0,0-1.83,0V20.93h8.51v7.63a11.26,11.26,0,0,0-1.76,0c-.23,0-.43.34-.65.53.2.2.4.57.6.57,1.64,0,3.28.06,4.91,0,.23,0,.45-.36.67-.55-.26-.2-.48-.51-.76-.57a7.93,7.93,0,0,0-1.46,0V12.72a1.71,1.71,0,0,0,.56-.05c.35-.17.67-.39,1-.59-.33-.19-.67-.53-1-.55-1.24-.07-2.48,0-3.72,0-.27,0-.52.34-.78.52.27.21.51.54.81.6a8.74,8.74,0,0,0,1.62,0V19.6Z" transform="translate(0)"/><path class="cls-7" d="M117,12.68V28.56a8.75,8.75,0,0,0-1.63,0c-.3.07-.55.4-.82.61.26.18.52.51.79.51,1.84.05,3.68.05,5.51,0,.28,0,.55-.39.83-.61-.27-.17-.52-.48-.81-.51-.78-.07-1.56,0-2.37,0V21.73c3.1-.69,5.64,0,7.47,2.61a34.4,34.4,0,0,1,2.64,4.13,1.92,1.92,0,0,0,2.34,1.24,4.13,4.13,0,0,0,1-.54c-.32-.2-.64-.43-1-.61s-.94-.29-1.14-.6c-1.48-2.35-2.71-4.89-5.16-6.64.75-.38,1.35-.64,1.93-1a4.53,4.53,0,0,0,2.34-3,5.08,5.08,0,0,0-4.66-5.73c-3-.22-6.07-.07-9.1-.05-.23,0-.46.33-.68.51.23.21.44.56.7.61A11.08,11.08,0,0,0,117,12.68Z" transform="translate(0)"/><path class="cls-7" d="M153.32,11.24V28.56a12.15,12.15,0,0,0-1.72,0c-.29.05-.54.34-.8.52.24.21.46.58.72.6,1,.07,2.06,0,3.11,0l.17-2.17c3.74,3.26,7.39,3.51,10.25.8a7.61,7.61,0,0,0,.77-10.15,6.54,6.54,0,0,0-4.21-2.55,7,7,0,0,0-6.71,2.6l-.23-.17v-8c-1.08,0-2-.06-2.91,0-.34,0-.64.4-1,.61a3.19,3.19,0,0,0,.91.51A10.65,10.65,0,0,0,153.32,11.24Z" transform="translate(0)"/><path class="cls-7" d="M58.52,12.92c-.33-.21-.57-.35-.79-.5a7.73,7.73,0,0,0-12,4.13,19.17,19.17,0,0,0-.48,5.1,8.77,8.77,0,0,0,5.22,7.94,7.88,7.88,0,0,0,9.08-2.07c.44-.45,1.22-.92.53-1.64-.11-.12-1,.46-1.48.75a2.83,2.83,0,0,0-.43.42c-2.65,2.53-6.11,2.52-9,.29-3.28-2.53-3.34-9.58-1.06-12.47a5.92,5.92,0,0,1,5.82-2.57c2.25.34,4.25,1.23,4.73,3.89,0,.21.41.46.66.5s.52-.32.52-.51c0-1.35.06-2.71,0-4.07a.85.85,0,0,0-.62-.54c-.21,0-.46.34-.6.58A2.21,2.21,0,0,0,58.52,12.92Z" transform="translate(0)"/><path class="cls-7" d="M95.32,28.13c0-2.44,0-5.15,0-7.86a5.16,5.16,0,0,0-.65-2.37c-1.5-2.57-5.13-3.14-7.79-1.28-.47.34-.91.72-1.5,1.18l-.13-1.73a22.15,22.15,0,0,0-2.32,0c-.28,0-.53.33-.79.52a4,4,0,0,0,.83.6,3.34,3.34,0,0,0,1,.1V28.56a9.55,9.55,0,0,0-1.53,0c-.25.05-.46.34-.69.51.24.21.47.6.71.61,1.52.05,3,.05,4.56,0,.22,0,.42-.36.64-.55-.22-.19-.41-.51-.65-.55a10.38,10.38,0,0,0-1.69,0c0-2.27.17-4.36,0-6.41C85,19.78,86.29,18.49,88,17.41a4.07,4.07,0,0,1,4.34-.1A3.29,3.29,0,0,1,94,20.65c-.06,1.43,0,2.87,0,4.31v3.59a3.09,3.09,0,0,0-.9,0,7.31,7.31,0,0,0-1,.58,3.29,3.29,0,0,0,1,.55,11.23,11.23,0,0,0,2.39,0,11.23,11.23,0,0,0,1.78-.5Z" transform="translate(0)"/><path class="cls-7" d="M71.06,30.21a7.31,7.31,0,1,0,0-14.62,7.31,7.31,0,1,0,0,14.62Z" transform="translate(0)"/><path class="cls-7" d="M141.09,30.21a7.31,7.31,0,0,0,.22-14.62,7.31,7.31,0,1,0-.22,14.62Z" transform="translate(0)"/><path class="cls-7" d="M178.12,30.21a7.31,7.31,0,0,0,.08-14.62,7.31,7.31,0,1,0-.08,14.62Z" transform="translate(0)"/><path class="cls-7" d="M38.82,17.24c0,2.89,0,5.64,0,8.39a1.13,1.13,0,0,1-.28.63A7.67,7.67,0,0,1,33.61,29a2.86,2.86,0,0,1-3.46-3c0-1.36,0-2.72,0-4.08V16.07c-1.14,0-2.14,0-3.12,0-.28,0-.53.34-.8.52.28.21.54.54.84.59a10.07,10.07,0,0,0,1.76,0v8.15c0,3.75,2.19,5.54,5.84,4.63a30.33,30.33,0,0,0,4.12-1.7l.15,1.4c.84,0,1.64,0,2.43,0,.24,0,.46-.33.69-.5-.23-.22-.43-.52-.7-.62a5,5,0,0,0-1.23-.1V16.07c-1.33,0-2.56,0-3.79,0-.26,0-.5.37-.75.57.25.19.5.52.77.54A24.56,24.56,0,0,0,38.82,17.24Z" transform="translate(0)"/><path class="cls-7" d="M192.3,17.24c0,3,0,5.78,0,8.61A3.85,3.85,0,0,0,195.64,30a6.39,6.39,0,0,0,2.38.15A45.72,45.72,0,0,0,202.87,29c.3-.08.46-.62.68-.95a7.47,7.47,0,0,0-1.14-.17c-.22,0-.43.19-.66.26a10.6,10.6,0,0,1-5.86.7,2.41,2.41,0,0,1-2.17-2.24c-.08-3.07,0-6.14,0-9.28.43,0,.78-.06,1.13-.06,2,0,3.92,0,5.88,0,.31,0,.6-.36.9-.55-.29-.2-.56-.54-.87-.57a19.25,19.25,0,0,0-2.28,0h-4.79c0-1.28.07-2.36,0-3.43,0-.46-.37-1.25-.63-1.27-.81-.09-.69.67-.7,1.21,0,1.14,0,2.29,0,3.49a21.72,21.72,0,0,0-2.31,0c-.32,0-.61.36-.91.55.29.2.56.54.87.57A20.1,20.1,0,0,0,192.3,17.24Z" transform="translate(0)"/><circle class="cls-2" cx="141.09" cy="22.9" r="6.06"/><circle class="cls-4" cx="70.99" cy="22.9" r="6.06"/><circle class="cls-2" cx="178.09" cy="22.9" r="6.06"/><circle class="cls-2" cx="160.31" cy="22.9" r="5.95"/><path class="cls-2" d="M118.45,12.7v7.53h3.67c1.15,0,5.42-.83,5.68-3.61s-3.07-3.89-4.09-3.92Z" transform="translate(0)"/></g></svg>