<svg xmlns="http://www.w3.org/2000/svg" xmlns:xlink="http://www.w3.org/1999/xlink" viewBox="0 0 243.8167 40.7641">
  <defs>
    <style>
      .a {
        fill: none;
      }

      .b {
        fill: #f99d33;
      }

      .c {
        fill: #14487e;
      }

      .d {
        fill: #006ab3;
      }

      .e {
        fill: #fff;
      }

      .f {
        clip-path: url(#a);
      }
    </style>
    <clipPath id="a">
      <rect class="a" x="214.5442" y="7.5597" width="19.8425" height="20.5103" rx="1.4173" ry="1.4173"/>
    </clipPath>
  </defs>
  <title>BAS1802_Hackerschoo_gitHub</title>
  <path class="b" d="M23.1231,35.77l-4.3484,4.9941L14.0171,35.77H0V4.42C0,.8829,1.5582,0,3.48,0H14.0171l4.7576,4.6L23.1231,0h87.0745V13.7756s.2046,4.33-1.944-.1882c0,0-2.4556-3.577-4.4,0v9.6379c1.9439,3.577,4.4,0,4.4,0,2.1486-4.5183,1.944-.1883,1.944-.1883V35.77Z"/>
  <path class="c" d="M110.2511,35.77V23.037s.2046-4.33-1.944.1883c0,0-2.4555,3.577-4.4,0V13.3039c1.944-3.577,4.4,0,4.4,0,2.1486,4.5183,1.944.1883,1.944.1883V0H240.3364c1.9222,0,3.48.8829,3.48,4.42V35.77Z"/>
  <path class="d" d="M210.2318,31.7313V22.9669s.2046-4.33-1.944.1883c0,0-2.4555,3.577-4.4,0V13.2338c1.944-3.577,4.4,0,4.4,0,2.1486,4.5183,1.944.1883,1.944.1883V3.8984h28.5746V31.7313Z"/>
  <rect class="e" x="214.5442" y="7.5597" width="19.8425" height="20.5103" rx="1.4173" ry="1.4173"/>
  <g>
    <path class="e" d="M9.9714,20.7249v7.25A1.0949,1.0949,0,0,1,8.717,29.2288a1.0951,1.0951,0,0,1-1.2543-1.2539V10.9661A1.0951,1.0951,0,0,1,8.717,9.7122a1.0949,1.0949,0,0,1,1.2544,1.2539v7.25h7.375v-7.25a1.095,1.095,0,0,1,1.2544-1.2539,1.0951,1.0951,0,0,1,1.2544,1.2539V27.9749a1.0951,1.0951,0,0,1-1.2544,1.2539,1.095,1.095,0,0,1-1.2544-1.2539v-7.25Z"/>
    <path class="e" d="M27.9353,10.9915c.2007-.6768.4766-1.2793,1.2793-1.2793.8276,0,1.1289.627,1.3047,1.2793l4.8413,16.9834c.1753.6016-.502,1.2539-1.2041,1.2539a1.4942,1.4942,0,0,1-1.3545-1.2539l-.9282-3.0107H26.5305l-.9531,3.0107a1.4951,1.4951,0,0,1-1.355,1.2539c-.7021,0-1.3794-.6523-1.2041-1.2539Zm1.3042,4.666h-.05l-1.957,6.7979h3.9384Z"/>
    <path class="e" d="M45.3225,29.2288A3.75,3.75,0,0,1,41.56,26.846L39.2517,22.18a5.6384,5.6384,0,0,1-.6772-2.6338,5.4751,5.4751,0,0,1,.7026-2.7852L41.5847,12.12A3.77,3.77,0,0,1,45.448,9.7122h4.2647a1.1755,1.1755,0,0,1,1.2543,1.2539,1.1923,1.1923,0,0,1-1.2543,1.2549H45.5232c-1.0786,0-1.2539.1006-1.731,1.0537L41.61,17.639a3.8885,3.8885,0,0,0-.5268,1.9072,3.4947,3.4947,0,0,0,.5268,1.7305l2.1323,4.34c.5015,1.0283.7525,1.1035,1.8814,1.1035h4.0889a1.1758,1.1758,0,0,1,1.2543,1.2549,1.1921,1.1921,0,0,1-1.2543,1.2539Z"/>
    <path class="e" d="M54.13,10.9661a1.2544,1.2544,0,0,1,2.5088,0v5.77L64.29,10.24a1.6716,1.6716,0,0,1,1.0288-.5019,1.2286,1.2286,0,0,1,1.2041,1.3047,1.491,1.491,0,0,1-.5771,1.0527l-8.6543,7.376,8.604,7.375a1.47,1.47,0,0,1,.6274,1.0781,1.2291,1.2291,0,0,1-1.2041,1.3047c-.5268,0-.9536-.4512-1.355-.7529L56.6389,22.18v5.7949a1.2544,1.2544,0,0,1-2.5088,0Z"/>
    <path class="e" d="M80.8245,26.72a1.2544,1.2544,0,1,1,0,2.5088H69.6863V9.7122H80.8245a1.1566,1.1566,0,0,1,1.2544,1.2539,1.1569,1.1569,0,0,1-1.2544,1.2549H72.1951v5.9951h3.6875A1.1569,1.1569,0,0,1,77.137,19.471a1.1566,1.1566,0,0,1-1.2544,1.2539H72.1951V26.72Z"/>
    <path class="e" d="M87.7507,27.9749a1.2544,1.2544,0,0,1-2.5087,0V9.7122h8.4287A3.792,3.792,0,0,1,97.6345,13.35v1.73c0,2.3584-1.957,3.5625-3.9638,3.5625H91.363L97.0071,26.72a2.523,2.523,0,0,1,.6274,1.33,1.2024,1.2024,0,0,1-1.2793,1.1787,1.3267,1.3267,0,0,1-1.104-.7021l-6.9233-9.8838h-.5772Zm0-11.8408H93.32c.7026,0,1.8061-.05,1.8061-1.0537V13.35c0-1.0039-1.0283-1.1289-1.7812-1.1289H87.7507Z"/>
  </g>
  <g>
    <path class="e" d="M127.31,24.3118a3.251,3.251,0,0,1,.8779,2.082c0,1.8819-1.43,2.835-3.1611,2.835h-5.5185a3.6988,3.6988,0,0,1-2.5333-.8027,3.1706,3.1706,0,0,1-1.18-2.333,1.3534,1.3534,0,0,1,1.33-1.5049,1.2009,1.2009,0,0,1,1.1788,1.2793c0,.7529.4013.8525,1.1035.8525h5.4443c.2,0,.8272.0752.8272-.3008,0-.2011-.3506-.5771-.4512-.7275l-8.6045-11.0625a3.0159,3.0159,0,0,1-.8281-2.0576,2.7956,2.7956,0,0,1,1.33-2.4082,3.3594,3.3594,0,0,1,2.0821-.4512h5.3183a3.5542,3.5542,0,0,1,2.4834.8281,3.415,3.415,0,0,1,1.1787,2.3828,1.28,1.28,0,0,1-1.3046,1.4551A1.1132,1.1132,0,0,1,125.68,13.2c0-.8535-.4258-.9785-1.2042-.9785H119.158c-.2764,0-.8535-.0752-.8535.3506,0,.2265.2763.5273.3759.6777Z"/>
    <path class="e" d="M135.8416,29.2288a3.75,3.75,0,0,1-3.7627-2.3828l-2.3077-4.666a5.6341,5.6341,0,0,1-.6777-2.6338,5.4756,5.4756,0,0,1,.7031-2.7852l2.3077-4.6406a3.77,3.77,0,0,1,3.8632-2.4082h4.2647a1.1752,1.1752,0,0,1,1.2539,1.2539,1.1925,1.1925,0,0,1-1.2539,1.2549h-4.19c-1.0791,0-1.2549.1006-1.7314,1.0537L132.13,17.639a3.89,3.89,0,0,0-.5273,1.9072,3.4912,3.4912,0,0,0,.5273,1.7305l2.1319,4.34c.5019,1.0283.7529,1.1035,1.8818,1.1035h4.0889a1.1755,1.1755,0,0,1,1.2539,1.2549,1.1922,1.1922,0,0,1-1.2539,1.2539Z"/>
    <path class="e" d="M147.158,20.7249v7.25a1.2544,1.2544,0,0,1-2.5088,0V10.9661a1.2544,1.2544,0,0,1,2.5088,0v7.25h7.375v-7.25a1.2544,1.2544,0,0,1,2.5088,0V27.9749a1.2544,1.2544,0,0,1-2.5088,0v-7.25Z"/>
    <path class="e" d="M171.9461,16.761a5.6934,5.6934,0,0,1,.6523,2.7852,6.1251,6.1251,0,0,1-.8281,2.9844l-2.3076,4.6162a3.2905,3.2905,0,0,1-6.1211,0l-2.3077-4.6162a6.1251,6.1251,0,0,1-.8281-2.9844,5.6924,5.6924,0,0,1,.6524-2.7852l2.5088-4.9922a3.268,3.268,0,0,1,6.07,0Zm-4.6915-3.7871c-.2-.4023-.3261-.7529-.8525-.7529s-.6523.3506-.8535.7529l-2.2578,4.54a3.8945,3.8945,0,0,0-.5762,2.0322,3.3918,3.3918,0,0,0,.4258,1.6553l2.4082,4.7666c.1758.3505.3516.7519.8535.7519s.6768-.4014.8525-.7519l2.4082-4.7666a3.3818,3.3818,0,0,0,.4268-1.6553,3.8963,3.8963,0,0,0-.5771-2.0322Z"/>
    <path class="e" d="M187.5017,16.761a5.6924,5.6924,0,0,1,.6524,2.7852,6.1242,6.1242,0,0,1-.8282,2.9844l-2.3076,4.6162a3.2905,3.2905,0,0,1-6.1211,0L176.59,22.5306a6.1251,6.1251,0,0,1-.8281-2.9844,5.6934,5.6934,0,0,1,.6523-2.7852l2.5088-4.9922a3.268,3.268,0,0,1,6.07,0ZM182.81,12.9739c-.2-.4023-.3262-.7529-.8525-.7529s-.6524.3506-.8535.7529l-2.2579,4.54a3.8953,3.8953,0,0,0-.5761,2.0322,3.3918,3.3918,0,0,0,.4258,1.6553l2.4082,4.7666c.1757.3505.3515.7519.8535.7519s.6767-.4014.8525-.7519l2.4082-4.7666a3.3818,3.3818,0,0,0,.4268-1.6553,3.8955,3.8955,0,0,0-.5772-2.0322Z"/>
    <path class="e" d="M202.4558,26.72a1.2544,1.2544,0,0,1,0,2.5088H191.3171V10.9661a1.2544,1.2544,0,0,1,2.5088,0V26.72Z"/>
  </g>
  <g class="f">
    <g>
      <path class="c" d="M211.3415,34.6324s2.2-8.3942,5.5785-11.9779l-1.2787-4.2984s-1.1786-2.9688.8688-2.9179l2.5587.1541s-3.48-4.8117,3.43-4.3516c0,0,2.4945-3.9157,4.0942-1.9959a1.9389,1.9389,0,0,0,2.7135.4606s2.5594-.2564,1.8428,2.15l-.3071,2.4067s6.6545,2.9687.7677,4.8619l1.8428.972s-3.0711,3.0711-2.2012,5.8356a26.9025,26.9025,0,0,1,1.33,8.7012Z"/>
      <path class="e" d="M227.5664,26.1358c.0572.203.1035-1.9954.5121-2.5594,0,0-5.8516-.8007-9.3164-3.7876-2.7886-2.406-3.2246-3.2257-2.3028-3.9415,0,0-1.6869.4062-.1519,2.5048s5.5989,5.022,10.5131,5.8406A12.368,12.368,0,0,1,227.5664,26.1358Z"/>
      <path class="b" d="M222.1406,11.9062l-.5114,1.1262s2.0215,2.6358,9.0843,2.7383l-.1785-1.2026S224.8538,14.5686,222.1406,11.9062Z"/>
      <path class="e" d="M225.88,20.0592l3.0681.1159s-.5211.7515-2.547.5786C226.4012,20.7537,225.7069,20.6375,225.88,20.0592Z"/>
      <path class="e" d="M224.29,19.8564l-2.7775-.8095s-.4338.4339.52.897A3.1833,3.1833,0,0,0,224.29,19.8564Z"/>
    </g>
  </g>
</svg>
