<?xml version="1.0" encoding="UTF-8" standalone="no"?>
<!DOCTYPE svg PUBLIC "-//W3C//DTD SVG 1.1//EN" "http://www.w3.org/Graphics/SVG/1.1/DTD/svg11.dtd">
<svg width="100%" height="100%" viewBox="0 0 244 41" version="1.1" xmlns="http://www.w3.org/2000/svg" xmlns:xlink="http://www.w3.org/1999/xlink" xml:space="preserve" xmlns:serif="http://www.serif.com/" style="fill-rule:evenodd;clip-rule:evenodd;stroke-linejoin:round;stroke-miterlimit:1.41421;">
    <path d="M23.123,35.77L18.775,40.764L14.017,35.77L0,35.77L0,4.42C0,0.883 1.558,0 3.48,0L14.017,0L18.775,4.6L23.123,0L110.198,0L110.198,13.776C110.198,13.776 110.402,18.106 108.254,13.587C108.254,13.587 105.798,10.01 103.854,13.587L103.854,23.225C105.797,26.802 108.254,23.225 108.254,23.225C110.402,18.707 110.198,23.037 110.198,23.037L110.198,35.77L23.123,35.77Z" style="fill:rgb(249,157,51);fill-rule:nonzero;"/>
    <path d="M110.251,35.77L110.251,23.037C110.251,23.037 110.456,18.707 108.307,23.225C108.307,23.225 105.852,26.802 103.907,23.225L103.907,13.304C105.851,9.727 108.307,13.304 108.307,13.304C110.456,17.822 110.251,13.492 110.251,13.492L110.251,0L240.336,0C242.259,0 243.816,0.883 243.816,4.42L243.816,35.77L110.251,35.77Z" style="fill:rgb(20,72,126);fill-rule:nonzero;"/>
    <path d="M210.232,31.731L210.232,22.967C210.232,22.967 210.436,18.637 208.288,23.155C208.288,23.155 205.832,26.732 203.888,23.155L203.888,13.234C205.832,9.657 208.288,13.234 208.288,13.234C210.436,17.752 210.232,13.422 210.232,13.422L210.232,3.898L238.806,3.898L238.806,31.731L210.232,31.731Z" style="fill:rgb(0,106,179);fill-rule:nonzero;"/>
    <path d="M234.387,8.977C234.387,8.195 233.752,7.56 232.969,7.56L215.962,7.56C215.179,7.56 214.544,8.195 214.544,8.977L214.544,26.653C214.544,27.435 215.179,28.07 215.962,28.07L232.969,28.07C233.752,28.07 234.387,27.435 234.387,26.653L234.387,8.977Z" style="fill:white;"/>
    <g transform="matrix(2.43025,0,0,2.43025,-226.814,-17.6816)">
        <text x="140.089px" y="18.368px" style="font-family:'Courier';font-size:12px;fill:white;">Robot</text>
    </g>
    <g transform="matrix(2.60189,0,0,2.60189,-46.5828,-16.1085)">
        <text x="20.02px" y="16.552px" style="font-family:'Courier';font-size:12px;fill:white;">HuCon</text>
    </g>
    <g>
        <path d="M211.342,34.632C211.342,34.632 213.541,26.238 216.92,22.655L215.641,18.356C215.641,18.356 214.463,15.387 216.51,15.438L219.069,15.592C219.069,15.592 215.589,10.781 222.499,11.241C222.499,11.241 224.993,7.325 226.593,9.245C226.956,9.76 227.548,10.067 228.178,10.067C228.583,10.067 228.977,9.941 229.307,9.705C229.636,9.47 231.866,9.449 231.149,11.855L230.842,14.262C230.842,14.262 237.497,17.231 231.61,19.124L233.453,20.096C233.453,20.096 230.382,23.167 231.252,25.932C232.17,28.739 232.619,31.679 232.582,34.633L211.342,34.632Z" style="fill:rgb(20,72,126);fill-rule:nonzero;"/>
        <path d="M227.566,26.136C227.624,26.339 227.67,24.14 228.079,23.576C228.079,23.576 222.227,22.776 218.762,19.789C215.974,17.383 215.538,16.563 216.459,15.847C216.459,15.847 214.772,16.253 216.307,18.352C217.842,20.451 221.906,23.374 226.821,24.193C227.123,24.818 227.373,25.468 227.566,26.136Z" style="fill:white;fill-rule:nonzero;"/>
        <path d="M222.141,11.906L221.629,13.032C221.629,13.032 223.651,15.668 230.714,15.771L230.535,14.568C230.535,14.568 224.854,14.569 222.141,11.906Z" style="fill:rgb(249,157,51);fill-rule:nonzero;"/>
        <path d="M225.88,20.059L228.948,20.175C228.948,20.175 228.427,20.927 226.401,20.754C226.401,20.754 225.707,20.638 225.88,20.059Z" style="fill:white;fill-rule:nonzero;"/>
        <path d="M224.29,19.856L221.512,19.047C221.512,19.047 221.079,19.481 222.033,19.944C222.77,20.192 223.574,20.161 224.29,19.856Z" style="fill:white;fill-rule:nonzero;"/>
    </g>
</svg>
